<svg width="137" height="30" viewBox="0 0 137 30" fill="none" xmlns="http://www.w3.org/2000/svg" id="sale">
<path d="M11.2 29H6.56V7.24H0.8V4.08C2.37333 4.02667 3.76 3.77333 4.96 3.32C6.16 2.84 7.10667 1.97333 7.8 0.719999H11.2V29ZM48.0147 21.08C48.0147 22.6267 47.708 23.9333 47.0947 25C46.508 26.04 45.7214 26.88 44.7347 27.52C43.7747 28.16 42.6814 28.6267 41.4547 28.92C40.228 29.1867 38.9747 29.32 37.6947 29.32C36.388 29.32 35.108 29.1733 33.8547 28.88C32.628 28.5867 31.5214 28.12 30.5347 27.48C29.5747 26.8133 28.8014 25.96 28.2147 24.92C27.628 23.88 27.3347 22.6 27.3347 21.08C27.3347 19.4533 27.6947 18.04 28.4147 16.84C29.1614 15.64 30.3347 14.7333 31.9347 14.12C31.2414 13.7733 30.6547 13.36 30.1747 12.88C29.7214 12.4 29.348 11.8933 29.0547 11.36C28.788 10.8 28.588 10.2267 28.4547 9.64C28.348 9.05333 28.2947 8.49333 28.2947 7.96C28.2947 6.6 28.548 5.44 29.0547 4.48C29.588 3.52 30.2947 2.73333 31.1747 2.12C32.0547 1.50666 33.0547 1.06666 34.1747 0.799998C35.3214 0.506666 36.508 0.359999 37.7347 0.359999C38.9347 0.359999 40.0947 0.506666 41.2147 0.799998C42.3614 1.06666 43.3614 1.50666 44.2147 2.12C45.0947 2.73333 45.788 3.52 46.2947 4.48C46.828 5.44 47.0947 6.6 47.0947 7.96C47.0947 8.49333 47.028 9.05333 46.8947 9.64C46.7614 10.2267 46.548 10.7867 46.2547 11.32C45.988 11.8533 45.6147 12.36 45.1347 12.84C44.6547 13.32 44.0814 13.72 43.4147 14.04C45.0147 14.6533 46.1747 15.5733 46.8947 16.8C47.6414 18.0267 48.0147 19.4533 48.0147 21.08ZM37.6947 4.44C37.0547 4.44 36.4414 4.52 35.8547 4.68C35.268 4.81333 34.748 5.04 34.2947 5.36C33.868 5.68 33.5214 6.10666 33.2547 6.64C33.0147 7.14667 32.8947 7.76 32.8947 8.48C32.8947 9.92 33.348 10.9867 34.2547 11.68C35.188 12.3467 36.3347 12.68 37.6947 12.68C38.3347 12.68 38.948 12.6 39.5347 12.44C40.1214 12.28 40.628 12.04 41.0547 11.72C41.4814 11.3733 41.8147 10.9467 42.0547 10.44C42.3214 9.93333 42.4547 9.33333 42.4547 8.64C42.4547 7.89333 42.3214 7.25333 42.0547 6.72C41.8147 6.18667 41.4814 5.74667 41.0547 5.4C40.628 5.05333 40.1214 4.81333 39.5347 4.68C38.948 4.52 38.3347 4.44 37.6947 4.44ZM37.6547 16.4C36.9347 16.4 36.228 16.48 35.5347 16.64C34.868 16.8 34.268 17.0533 33.7347 17.4C33.2014 17.7467 32.7747 18.2 32.4547 18.76C32.1347 19.32 31.9747 20 31.9747 20.8C31.9747 21.68 32.1614 22.4133 32.5347 23C32.908 23.56 33.3747 24.0133 33.9347 24.36C34.4947 24.68 35.108 24.9067 35.7747 25.04C36.4414 25.1733 37.0814 25.24 37.6947 25.24C38.308 25.24 38.948 25.1733 39.6147 25.04C40.2814 24.9067 40.8814 24.68 41.4147 24.36C41.9747 24.0133 42.428 23.56 42.7747 23C43.148 22.4133 43.3347 21.68 43.3347 20.8C43.3347 20 43.1747 19.32 42.8547 18.76C42.5347 18.2 42.108 17.7467 41.5747 17.4C41.0414 17.0533 40.428 16.8 39.7347 16.64C39.068 16.48 38.3747 16.4 37.6547 16.4ZM68.0184 15.48C67.6184 16.0933 67.1518 16.6133 66.6184 17.04C66.0851 17.4667 65.4984 17.8267 64.8584 18.12C64.2451 18.3867 63.5918 18.5867 62.8984 18.72C62.2051 18.8533 61.5118 18.92 60.8184 18.92C59.4851 18.92 58.2584 18.72 57.1384 18.32C56.0451 17.8933 55.0851 17.2933 54.2584 16.52C53.4318 15.7467 52.7918 14.8 52.3384 13.68C51.8851 12.56 51.6584 11.2933 51.6584 9.88C51.6584 8.44 51.9118 7.13333 52.4184 5.96C52.9518 4.78667 53.6584 3.8 54.5384 3C55.4451 2.17333 56.4984 1.54666 57.6984 1.12C58.9251 0.666665 60.2451 0.439998 61.6584 0.439998C63.6318 0.413332 65.3384 0.853332 66.7784 1.76C68.2451 2.64 69.3651 3.76 70.1384 5.12C70.9384 6.45333 71.4984 7.98667 71.8184 9.72C72.1651 11.4267 72.3651 13.1467 72.4184 14.88C72.4184 16.6933 72.2451 18.4667 71.8984 20.2C71.5518 21.9333 70.9518 23.48 70.0984 24.84C69.2718 26.1733 68.1518 27.2533 66.7384 28.08C65.3251 28.88 63.5518 29.28 61.4184 29.28C60.2451 29.28 59.1251 29.1467 58.0584 28.88C57.0184 28.5867 56.0718 28.16 55.2184 27.6C54.3651 27.0133 53.6451 26.2933 53.0584 25.44C52.4718 24.56 52.0851 23.52 51.8984 22.32H56.6584C57.0051 23.28 57.6318 24 58.5384 24.48C59.4451 24.9333 60.4051 25.16 61.4184 25.16C62.2184 25.16 62.9251 25.0533 63.5384 24.84C64.1518 24.6 64.6984 24.2933 65.1784 23.92C65.6584 23.5467 66.0718 23.1067 66.4184 22.6C66.7651 22.0667 67.0451 21.5067 67.2584 20.92C67.6051 20.04 67.8184 19.1467 67.8984 18.24C67.9784 17.3067 68.0184 16.3867 68.0184 15.48ZM56.2984 9.6C56.2984 11.2267 56.7651 12.5067 57.6984 13.44C58.6584 14.3733 59.9384 14.84 61.5384 14.84C62.2584 14.84 62.9384 14.7333 63.5784 14.52C64.2451 14.28 64.8184 13.96 65.2984 13.56C65.7784 13.1333 66.1518 12.6267 66.4184 12.04C66.7118 11.4267 66.8718 10.76 66.8984 10.04C66.8984 9.29333 66.7784 8.58667 66.5384 7.92C66.2984 7.25333 65.9518 6.68 65.4984 6.2C65.0451 5.69333 64.4851 5.29333 63.8184 5C63.1784 4.70667 62.4584 4.56 61.6584 4.56C60.1118 4.56 58.8318 5.01333 57.8184 5.92C56.8318 6.82667 56.3251 8.05333 56.2984 9.6ZM98.3041 14.84C98.3041 17 98.0774 18.9733 97.6241 20.76C97.1974 22.52 96.5174 24.0267 95.5841 25.28C94.6774 26.5333 93.5307 27.5067 92.1441 28.2C90.7574 28.8933 89.1174 29.24 87.2241 29.24C85.3307 29.24 83.6907 28.9067 82.3041 28.24C80.9174 27.5467 79.7707 26.5867 78.8641 25.36C77.9574 24.1333 77.2774 22.6533 76.8241 20.92C76.3707 19.1867 76.1441 17.2533 76.1441 15.12C76.1441 12.9333 76.3574 10.9333 76.7841 9.12C77.2107 7.30667 77.8774 5.74667 78.7841 4.44C79.6907 3.13333 80.8374 2.13333 82.2241 1.44C83.6374 0.719999 85.3041 0.359999 87.2241 0.359999C89.0907 0.359999 90.7174 0.706665 92.1041 1.4C93.4907 2.09333 94.6374 3.08 95.5441 4.36C96.4774 5.64 97.1707 7.17333 97.6241 8.96C98.0774 10.72 98.3041 12.68 98.3041 14.84ZM80.7441 14.84C80.7441 16.3067 80.8507 17.6667 81.0641 18.92C81.2774 20.1733 81.6374 21.2667 82.1441 22.2C82.6507 23.1067 83.3174 23.8267 84.1441 24.36C84.9707 24.8667 85.9974 25.12 87.2241 25.12C88.4241 25.12 89.4374 24.8667 90.2641 24.36C91.0907 23.8267 91.7574 23.1067 92.2641 22.2C92.7707 21.2667 93.1307 20.1733 93.3441 18.92C93.5574 17.6667 93.6641 16.3067 93.6641 14.84C93.6641 13.4 93.5574 12.0533 93.3441 10.8C93.1307 9.52 92.7707 8.42667 92.2641 7.52C91.7574 6.58667 91.0907 5.85333 90.2641 5.32C89.4374 4.78667 88.4241 4.52 87.2241 4.52C85.9974 4.52 84.9707 4.78667 84.1441 5.32C83.3174 5.85333 82.6507 6.58667 82.1441 7.52C81.6374 8.42667 81.2774 9.52 81.0641 10.8C80.8507 12.0533 80.7441 13.4 80.7441 14.84ZM112.494 22.04H116.054V18.92H112.494V15H116.054V0.719999H126.334C127.908 0.719999 129.334 0.879999 130.614 1.2C131.894 1.49333 132.988 2 133.894 2.72C134.801 3.41333 135.494 4.33333 135.974 5.48C136.481 6.62667 136.734 8.04 136.734 9.72C136.734 9.8 136.734 9.86667 136.734 9.92C136.734 11.3067 136.468 12.5867 135.934 13.76C135.401 14.9333 134.668 15.9067 133.734 16.68C132.801 17.4267 131.681 17.9867 130.374 18.36C129.068 18.7333 127.654 18.92 126.134 18.92H120.694V22.04H128.734V25.72H120.694V29H116.054V25.72H112.494V22.04ZM125.934 15C126.788 15 127.574 14.9067 128.294 14.72C129.041 14.5333 129.694 14.24 130.254 13.84C130.814 13.44 131.254 12.92 131.574 12.28C131.921 11.64 132.108 10.8533 132.134 9.92C132.134 8.93333 132.001 8.12 131.734 7.48C131.468 6.81333 131.068 6.29333 130.534 5.92C130.028 5.52 129.401 5.25333 128.654 5.12C127.908 4.96 127.041 4.88 126.054 4.88H120.694V15H125.934Z" fill="#1E1F1F"/>
</svg>
