<svg width="144" height="30" viewBox="0 0 144 30" fill="none" xmlns="http://www.w3.org/2000/svg" id="full">
<path d="M0.92 16.56L2.44 0.719999H19.48V4.84H6.32L5.52 12.2C6.29333 11.6933 7.12 11.3067 8 11.04C8.90667 10.7467 9.98667 10.6 11.24 10.6C12.6533 10.6 13.9333 10.8133 15.08 11.24C16.2267 11.64 17.2133 12.2267 18.04 13C18.8667 13.7733 19.4933 14.72 19.92 15.84C20.3733 16.96 20.6 18.2267 20.6 19.64C20.6 21.16 20.3333 22.52 19.8 23.72C19.2667 24.92 18.5333 25.9333 17.6 26.76C16.6667 27.5867 15.5733 28.2267 14.32 28.68C13.0667 29.1067 11.7067 29.32 10.24 29.32C8.98667 29.32 7.8 29.1733 6.68 28.88C5.58667 28.5867 4.58667 28.1333 3.68 27.52C2.8 26.9067 2.05333 26.12 1.44 25.16C0.853333 24.1733 0.466667 23.0133 0.28 21.68H4.88C5.04 22.24 5.29333 22.7333 5.64 23.16C6.01333 23.5867 6.44 23.9467 6.92 24.24C7.4 24.5333 7.92 24.76 8.48 24.92C9.04 25.0533 9.6 25.12 10.16 25.12C10.96 25.12 11.7067 25.0267 12.4 24.84C13.0933 24.6267 13.6933 24.3067 14.2 23.88C14.7333 23.4533 15.1467 22.92 15.44 22.28C15.7333 21.6133 15.88 20.8133 15.88 19.88C15.88 18.1733 15.3733 16.8667 14.36 15.96C13.3733 15.0533 12.0667 14.6 10.44 14.6C9.42667 14.6 8.50667 14.7733 7.68 15.12C6.85333 15.4667 6.10667 15.9467 5.44 16.56H0.92ZM39.0716 14.04C39.9516 12.92 41.0049 12.0933 42.2316 11.56C43.4582 11.0267 44.7649 10.76 46.1516 10.76C47.5382 10.76 48.8049 10.9733 49.9516 11.4C51.0982 11.8267 52.0716 12.4267 52.8716 13.2C53.6716 13.9733 54.2849 14.9333 54.7116 16.08C55.1649 17.2 55.3916 18.4533 55.3916 19.84C55.3916 21.2533 55.1382 22.5333 54.6316 23.68C54.1516 24.8267 53.4716 25.8133 52.5916 26.64C51.7116 27.4667 50.6849 28.1067 49.5116 28.56C48.3382 29.0133 47.0716 29.24 45.7116 29.24C43.6849 29.24 41.9649 28.88 40.5516 28.16C39.1649 27.4133 38.0316 26.44 37.1516 25.24C36.2982 24.0133 35.6716 22.6 35.2716 21C34.8982 19.3733 34.6982 17.68 34.6716 15.92C34.6716 14.72 34.7382 13.52 34.8716 12.32C35.0316 11.12 35.2716 9.97333 35.5916 8.88C35.9382 7.76 36.3782 6.70667 36.9116 5.72C37.4716 4.73333 38.1516 3.85333 38.9516 3.08C39.8049 2.25333 40.8316 1.6 42.0316 1.12C43.2316 0.639999 44.6049 0.399999 46.1516 0.399999C48.4716 0.399999 50.4582 0.973332 52.1116 2.12C53.7649 3.26667 54.8182 5.02667 55.2716 7.4H50.6316C50.2582 6.41333 49.6449 5.69333 48.7916 5.24C47.9382 4.76 47.0049 4.52 45.9916 4.52C45.1382 4.52 44.3516 4.66667 43.6316 4.96C42.9382 5.25333 42.3249 5.66667 41.7916 6.2C41.3116 6.68 40.8982 7.22666 40.5516 7.84C40.2049 8.45333 39.9249 9.10667 39.7116 9.8C39.4982 10.4933 39.3382 11.2 39.2316 11.92C39.1249 12.64 39.0716 13.3467 39.0716 14.04ZM50.7516 20.16C50.7516 18.56 50.2716 17.28 49.3116 16.32C48.3782 15.3333 47.1116 14.84 45.5116 14.84C44.7649 14.84 44.0582 14.9733 43.3916 15.24C42.7516 15.48 42.1782 15.8267 41.6716 16.28C41.1916 16.7333 40.8049 17.28 40.5116 17.92C40.2449 18.56 40.1116 19.2533 40.1116 20C40.1116 20.6933 40.2449 21.36 40.5116 22C40.7782 22.6133 41.1516 23.16 41.6316 23.64C42.1116 24.0933 42.6716 24.4667 43.3116 24.76C43.9782 25.0267 44.6982 25.16 45.4716 25.16C47.0182 25.16 48.2849 24.7067 49.2716 23.8C50.2582 22.8667 50.7516 21.6533 50.7516 20.16ZM75.2763 15.48C74.8763 16.0933 74.4096 16.6133 73.8762 17.04C73.3429 17.4667 72.7563 17.8267 72.1162 18.12C71.5029 18.3867 70.8496 18.5867 70.1562 18.72C69.4629 18.8533 68.7696 18.92 68.0763 18.92C66.7429 18.92 65.5162 18.72 64.3962 18.32C63.3029 17.8933 62.3429 17.2933 61.5162 16.52C60.6896 15.7467 60.0496 14.8 59.5962 13.68C59.1429 12.56 58.9162 11.2933 58.9162 9.88C58.9162 8.44 59.1696 7.13333 59.6762 5.96C60.2096 4.78667 60.9162 3.8 61.7962 3C62.7029 2.17333 63.7562 1.54666 64.9562 1.12C66.1829 0.666665 67.5029 0.439998 68.9163 0.439998C70.8896 0.413332 72.5963 0.853332 74.0362 1.76C75.5029 2.64 76.6229 3.76 77.3963 5.12C78.1962 6.45333 78.7562 7.98667 79.0763 9.72C79.4229 11.4267 79.6229 13.1467 79.6762 14.88C79.6762 16.6933 79.5029 18.4667 79.1562 20.2C78.8096 21.9333 78.2096 23.48 77.3563 24.84C76.5296 26.1733 75.4096 27.2533 73.9963 28.08C72.5829 28.88 70.8096 29.28 68.6762 29.28C67.5029 29.28 66.3829 29.1467 65.3162 28.88C64.2762 28.5867 63.3296 28.16 62.4762 27.6C61.6229 27.0133 60.9029 26.2933 60.3162 25.44C59.7296 24.56 59.3429 23.52 59.1562 22.32H63.9162C64.2629 23.28 64.8896 24 65.7962 24.48C66.7029 24.9333 67.6629 25.16 68.6762 25.16C69.4762 25.16 70.1829 25.0533 70.7962 24.84C71.4096 24.6 71.9563 24.2933 72.4363 23.92C72.9163 23.5467 73.3296 23.1067 73.6762 22.6C74.0229 22.0667 74.3029 21.5067 74.5162 20.92C74.8629 20.04 75.0762 19.1467 75.1562 18.24C75.2363 17.3067 75.2763 16.3867 75.2763 15.48ZM63.5562 9.6C63.5562 11.2267 64.0229 12.5067 64.9562 13.44C65.9162 14.3733 67.1962 14.84 68.7962 14.84C69.5162 14.84 70.1962 14.7333 70.8362 14.52C71.5029 14.28 72.0762 13.96 72.5562 13.56C73.0363 13.1333 73.4096 12.6267 73.6762 12.04C73.9696 11.4267 74.1296 10.76 74.1562 10.04C74.1562 9.29333 74.0362 8.58667 73.7963 7.92C73.5563 7.25333 73.2096 6.68 72.7562 6.2C72.3029 5.69333 71.7429 5.29333 71.0762 5C70.4363 4.70667 69.7163 4.56 68.9163 4.56C67.3696 4.56 66.0896 5.01333 65.0762 5.92C64.0896 6.82667 63.5829 8.05333 63.5562 9.6ZM105.562 14.84C105.562 17 105.335 18.9733 104.882 20.76C104.455 22.52 103.775 24.0267 102.842 25.28C101.935 26.5333 100.789 27.5067 99.4019 28.2C98.0152 28.8933 96.3752 29.24 94.4819 29.24C92.5885 29.24 90.9485 28.9067 89.5619 28.24C88.1752 27.5467 87.0285 26.5867 86.1219 25.36C85.2152 24.1333 84.5352 22.6533 84.0819 20.92C83.6285 19.1867 83.4019 17.2533 83.4019 15.12C83.4019 12.9333 83.6152 10.9333 84.0419 9.12C84.4685 7.30667 85.1352 5.74667 86.0419 4.44C86.9485 3.13333 88.0952 2.13333 89.4819 1.44C90.8952 0.719999 92.5619 0.359999 94.4819 0.359999C96.3485 0.359999 97.9752 0.706665 99.3619 1.4C100.749 2.09333 101.895 3.08 102.802 4.36C103.735 5.64 104.429 7.17333 104.882 8.96C105.335 10.72 105.562 12.68 105.562 14.84ZM88.0019 14.84C88.0019 16.3067 88.1085 17.6667 88.3219 18.92C88.5352 20.1733 88.8952 21.2667 89.4019 22.2C89.9085 23.1067 90.5752 23.8267 91.4019 24.36C92.2285 24.8667 93.2552 25.12 94.4819 25.12C95.6819 25.12 96.6952 24.8667 97.5219 24.36C98.3485 23.8267 99.0152 23.1067 99.5219 22.2C100.029 21.2667 100.389 20.1733 100.602 18.92C100.815 17.6667 100.922 16.3067 100.922 14.84C100.922 13.4 100.815 12.0533 100.602 10.8C100.389 9.52 100.029 8.42667 99.5219 7.52C99.0152 6.58667 98.3485 5.85333 97.5219 5.32C96.6952 4.78667 95.6819 4.52 94.4819 4.52C93.2552 4.52 92.2285 4.78667 91.4019 5.32C90.5752 5.85333 89.9085 6.58667 89.4019 7.52C88.8952 8.42667 88.5352 9.52 88.3219 10.8C88.1085 12.0533 88.0019 13.4 88.0019 14.84ZM119.752 22.04H123.312V18.92H119.752V15H123.312V0.719999H133.592C135.166 0.719999 136.592 0.879999 137.872 1.2C139.152 1.49333 140.246 2 141.152 2.72C142.059 3.41333 142.752 4.33333 143.232 5.48C143.739 6.62667 143.992 8.04 143.992 9.72C143.992 9.8 143.992 9.86667 143.992 9.92C143.992 11.3067 143.726 12.5867 143.192 13.76C142.659 14.9333 141.926 15.9067 140.992 16.68C140.059 17.4267 138.939 17.9867 137.632 18.36C136.326 18.7333 134.912 18.92 133.392 18.92H127.952V22.04H135.992V25.72H127.952V29H123.312V25.72H119.752V22.04ZM133.192 15C134.046 15 134.832 14.9067 135.552 14.72C136.299 14.5333 136.952 14.24 137.512 13.84C138.072 13.44 138.512 12.92 138.832 12.28C139.179 11.64 139.366 10.8533 139.392 9.92C139.392 8.93333 139.259 8.12 138.992 7.48C138.726 6.81333 138.326 6.29333 137.792 5.92C137.286 5.52 136.659 5.25333 135.912 5.12C135.166 4.96 134.299 4.88 133.312 4.88H127.952V15H133.192Z" fill="white"/>
<path d="M-2 19H145.752V21H-2V19Z" fill="white"/>
</svg>
