<svg width="228" height="120" viewBox="0 0 228 120" fill="none" xmlns="http://www.w3.org/2000/svg">
<path d="M194.205 0H33.7912C15.1288 0 -6.10352e-05 15.1288 -6.10352e-05 33.7912V359.209C-6.10352e-05 377.871 15.1288 393 33.7912 393H194.205C212.867 393 227.996 377.871 227.996 359.209V33.7912C227.996 15.1288 212.867 0 194.205 0Z" fill="#298A7C"/>
<path d="M195.021 15.3457H32.3689C20.003 15.3457 9.97845 25.3703 9.97845 37.7362V359.265C9.97845 371.631 20.003 381.655 32.3689 381.655H195.021C207.387 381.655 217.411 371.631 217.411 359.265V37.7362C217.411 25.3703 207.387 15.3457 195.021 15.3457Z" fill="white"/>
<path d="M159.503 6.94922H64.1237C59.0076 6.94922 54.8602 11.0966 54.8602 16.2127V16.219C54.8602 21.3351 59.0076 25.4825 64.1237 25.4825H159.503C164.619 25.4825 168.766 21.3351 168.766 16.219V16.2127C168.766 11.0966 164.619 6.94922 159.503 6.94922Z" fill="#298A7C"/>
<path d="M134.191 8.54883H90.8009C88.8592 8.54883 87.2852 10.1229 87.2852 12.0645V12.0709C87.2852 14.0125 88.8592 15.5866 90.8009 15.5866H134.191C136.132 15.5866 137.706 14.0125 137.706 12.0709V12.0645C137.706 10.1229 136.132 8.54883 134.191 8.54883Z" fill="white"/>
<path d="M193.704 56.4473H37.413C32.3109 56.4473 28.1748 60.5834 28.1748 65.6855V99.5273C28.1748 104.629 32.3109 108.765 37.413 108.765H193.704C198.806 108.765 202.942 104.629 202.942 99.5273V65.6855C202.942 60.5834 198.806 56.4473 193.704 56.4473Z" fill="#E5F4F2"/>
<path d="M54.812 101.077C65.2118 101.077 73.6425 92.6463 73.6425 82.2465C73.6425 71.8467 65.2118 63.416 54.812 63.416C44.4122 63.416 35.9814 71.8467 35.9814 82.2465C35.9814 92.6463 44.4122 101.077 54.812 101.077Z" fill="#CAD3D1"/>
<path d="M184.922 65.0654H87.3996C85.1925 65.0654 83.4033 66.8546 83.4033 69.0617C83.4033 71.2688 85.1925 73.058 87.3996 73.058H184.922C187.13 73.058 188.919 71.2688 188.919 69.0617C188.919 66.8546 187.13 65.0654 184.922 65.0654Z" fill="#CAD3D1"/>
<path d="M162.538 78.3447H87.3996C85.1925 78.3447 83.4033 80.1339 83.4033 82.341C83.4033 84.5481 85.1925 86.3373 87.3996 86.3373H162.538C164.745 86.3373 166.535 84.5481 166.535 82.341C166.535 80.1339 164.745 78.3447 162.538 78.3447Z" fill="#CAD3D1"/>
<path d="M105.079 93.0781H87.3996C85.1925 93.0781 83.4033 94.8673 83.4033 97.0744C83.4033 99.2815 85.1925 101.071 87.3996 101.071H105.079C107.286 101.071 109.076 99.2815 109.076 97.0744C109.076 94.8673 107.286 93.0781 105.079 93.0781Z" fill="#CAD3D1"/>
<g clip-path="url(#clip0_68_883)">
<path d="M70.9787 82.3414C70.9787 91.3017 63.7149 98.5655 54.7547 98.5655C45.7944 98.5655 38.5306 91.3017 38.5306 82.3414C38.5306 73.3812 45.7944 66.1174 54.7547 66.1174C63.7149 66.1174 70.9787 73.3812 70.9787 82.3414Z" fill="white"/>
<path d="M54.7547 61.791C43.4015 61.791 34.2042 70.9897 34.2042 82.3414C34.2042 93.6932 43.4029 102.892 54.7547 102.892C66.1078 102.892 75.3051 93.6932 75.3051 82.3414C75.3051 70.9897 66.1064 61.791 54.7547 61.791ZM64.8482 75.87L61.4753 91.7641C61.226 92.8911 60.5552 93.1642 59.6191 92.6339L54.4815 88.8473L52.0035 91.2338C51.7304 91.5069 51.4984 91.739 50.9681 91.739L51.3327 86.5099L60.8535 77.9079C61.2685 77.5432 60.762 77.3364 60.2144 77.701L48.4477 85.1085L43.3763 83.5254C42.2746 83.178 42.2494 82.4236 43.6084 81.8933L63.4216 74.2525C64.3418 73.9211 65.1452 74.4766 64.8469 75.8687L64.8482 75.87Z" fill="#36ACF2"/>
</g>
<defs>
<clipPath id="clip0_68_883">
<rect width="41.1009" height="41.1009" fill="white" transform="translate(34.2042 61.791)"/>
</clipPath>
</defs>
</svg>
