<svg width="367" height="70" viewBox="0 0 367 70" fill="none" xmlns="http://www.w3.org/2000/svg" id="price">
<path fill-rule="evenodd" clip-rule="evenodd" d="M0 12C0 5.37258 5.37258 0 12 0H175C181.627 0 187 5.37258 187 12V23C180.373 23 175 28.3726 175 35C175 41.6274 180.373 47 187 47V58C187 64.6274 181.627 70 175 70H12C5.37259 70 0 64.6274 0 58V47C6.62742 47 12 41.6274 12 35C12 28.3726 6.62742 23 0 23V12Z" fill="white"/>
<path d="M35.2 48H30.56V26.24H24.8V23.08C26.3733 23.0267 27.76 22.7733 28.96 22.32C30.16 21.84 31.1067 20.9733 31.8 19.72H35.2V48ZM72.0147 40.08C72.0147 41.6267 71.708 42.9333 71.0947 44C70.508 45.04 69.7214 45.88 68.7347 46.52C67.7747 47.16 66.6814 47.6267 65.4547 47.92C64.228 48.1867 62.9747 48.32 61.6947 48.32C60.388 48.32 59.108 48.1733 57.8547 47.88C56.628 47.5867 55.5214 47.12 54.5347 46.48C53.5747 45.8133 52.8014 44.96 52.2147 43.92C51.628 42.88 51.3347 41.6 51.3347 40.08C51.3347 38.4533 51.6947 37.04 52.4147 35.84C53.1614 34.64 54.3347 33.7333 55.9347 33.12C55.2414 32.7733 54.6547 32.36 54.1747 31.88C53.7214 31.4 53.348 30.8933 53.0547 30.36C52.788 29.8 52.588 29.2267 52.4547 28.64C52.348 28.0533 52.2947 27.4933 52.2947 26.96C52.2947 25.6 52.548 24.44 53.0547 23.48C53.588 22.52 54.2947 21.7333 55.1747 21.12C56.0547 20.5067 57.0547 20.0667 58.1747 19.8C59.3214 19.5067 60.508 19.36 61.7347 19.36C62.9347 19.36 64.0947 19.5067 65.2147 19.8C66.3614 20.0667 67.3614 20.5067 68.2147 21.12C69.0947 21.7333 69.788 22.52 70.2947 23.48C70.828 24.44 71.0947 25.6 71.0947 26.96C71.0947 27.4933 71.028 28.0533 70.8947 28.64C70.7614 29.2267 70.548 29.7867 70.2547 30.32C69.988 30.8533 69.6147 31.36 69.1347 31.84C68.6547 32.32 68.0814 32.72 67.4147 33.04C69.0147 33.6533 70.1747 34.5733 70.8947 35.8C71.6414 37.0267 72.0147 38.4533 72.0147 40.08ZM61.6947 23.44C61.0547 23.44 60.4414 23.52 59.8547 23.68C59.268 23.8133 58.748 24.04 58.2947 24.36C57.868 24.68 57.5214 25.1067 57.2547 25.64C57.0147 26.1467 56.8947 26.76 56.8947 27.48C56.8947 28.92 57.348 29.9867 58.2547 30.68C59.188 31.3467 60.3347 31.68 61.6947 31.68C62.3347 31.68 62.948 31.6 63.5347 31.44C64.1214 31.28 64.628 31.04 65.0547 30.72C65.4814 30.3733 65.8147 29.9467 66.0547 29.44C66.3214 28.9333 66.4547 28.3333 66.4547 27.64C66.4547 26.8933 66.3214 26.2533 66.0547 25.72C65.8147 25.1867 65.4814 24.7467 65.0547 24.4C64.628 24.0533 64.1214 23.8133 63.5347 23.68C62.948 23.52 62.3347 23.44 61.6947 23.44ZM61.6547 35.4C60.9347 35.4 60.228 35.48 59.5347 35.64C58.868 35.8 58.268 36.0533 57.7347 36.4C57.2014 36.7467 56.7747 37.2 56.4547 37.76C56.1347 38.32 55.9747 39 55.9747 39.8C55.9747 40.68 56.1614 41.4133 56.5347 42C56.908 42.56 57.3747 43.0133 57.9347 43.36C58.4947 43.68 59.108 43.9067 59.7747 44.04C60.4414 44.1733 61.0814 44.24 61.6947 44.24C62.308 44.24 62.948 44.1733 63.6147 44.04C64.2814 43.9067 64.8814 43.68 65.4147 43.36C65.9747 43.0133 66.428 42.56 66.7747 42C67.148 41.4133 67.3347 40.68 67.3347 39.8C67.3347 39 67.1747 38.32 66.8547 37.76C66.5347 37.2 66.108 36.7467 65.5747 36.4C65.0414 36.0533 64.428 35.8 63.7347 35.64C63.068 35.48 62.3747 35.4 61.6547 35.4ZM92.0184 34.48C91.6184 35.0933 91.1518 35.6133 90.6184 36.04C90.0851 36.4667 89.4984 36.8267 88.8584 37.12C88.2451 37.3867 87.5918 37.5867 86.8984 37.72C86.2051 37.8533 85.5118 37.92 84.8184 37.92C83.4851 37.92 82.2584 37.72 81.1384 37.32C80.0451 36.8933 79.0851 36.2933 78.2584 35.52C77.4318 34.7467 76.7918 33.8 76.3384 32.68C75.8851 31.56 75.6584 30.2933 75.6584 28.88C75.6584 27.44 75.9118 26.1333 76.4184 24.96C76.9518 23.7867 77.6584 22.8 78.5384 22C79.4451 21.1733 80.4984 20.5467 81.6984 20.12C82.9251 19.6667 84.2451 19.44 85.6584 19.44C87.6318 19.4133 89.3384 19.8533 90.7784 20.76C92.2451 21.64 93.3651 22.76 94.1384 24.12C94.9384 25.4533 95.4984 26.9867 95.8184 28.72C96.1651 30.4267 96.3651 32.1467 96.4184 33.88C96.4184 35.6933 96.2451 37.4667 95.8984 39.2C95.5518 40.9333 94.9518 42.48 94.0984 43.84C93.2718 45.1733 92.1518 46.2533 90.7384 47.08C89.3251 47.88 87.5518 48.28 85.4184 48.28C84.2451 48.28 83.1251 48.1467 82.0584 47.88C81.0184 47.5867 80.0718 47.16 79.2184 46.6C78.3651 46.0133 77.6451 45.2933 77.0584 44.44C76.4718 43.56 76.0851 42.52 75.8984 41.32H80.6584C81.0051 42.28 81.6318 43 82.5384 43.48C83.4451 43.9333 84.4051 44.16 85.4184 44.16C86.2184 44.16 86.9251 44.0533 87.5384 43.84C88.1518 43.6 88.6984 43.2933 89.1784 42.92C89.6584 42.5467 90.0718 42.1067 90.4184 41.6C90.7651 41.0667 91.0451 40.5067 91.2584 39.92C91.6051 39.04 91.8184 38.1467 91.8984 37.24C91.9784 36.3067 92.0184 35.3867 92.0184 34.48ZM80.2984 28.6C80.2984 30.2267 80.7651 31.5067 81.6984 32.44C82.6584 33.3733 83.9384 33.84 85.5384 33.84C86.2584 33.84 86.9384 33.7333 87.5784 33.52C88.2451 33.28 88.8184 32.96 89.2984 32.56C89.7784 32.1333 90.1518 31.6267 90.4184 31.04C90.7118 30.4267 90.8718 29.76 90.8984 29.04C90.8984 28.2933 90.7784 27.5867 90.5384 26.92C90.2984 26.2533 89.9518 25.68 89.4984 25.2C89.0451 24.6933 88.4851 24.2933 87.8184 24C87.1784 23.7067 86.4584 23.56 85.6584 23.56C84.1118 23.56 82.8318 24.0133 81.8184 24.92C80.8318 25.8267 80.3251 27.0533 80.2984 28.6ZM122.304 33.84C122.304 36 122.077 37.9733 121.624 39.76C121.197 41.52 120.517 43.0267 119.584 44.28C118.677 45.5333 117.531 46.5067 116.144 47.2C114.757 47.8933 113.117 48.24 111.224 48.24C109.331 48.24 107.691 47.9067 106.304 47.24C104.917 46.5467 103.771 45.5867 102.864 44.36C101.957 43.1333 101.277 41.6533 100.824 39.92C100.371 38.1867 100.144 36.2533 100.144 34.12C100.144 31.9333 100.357 29.9333 100.784 28.12C101.211 26.3067 101.877 24.7467 102.784 23.44C103.691 22.1333 104.837 21.1333 106.224 20.44C107.637 19.72 109.304 19.36 111.224 19.36C113.091 19.36 114.717 19.7067 116.104 20.4C117.491 21.0933 118.637 22.08 119.544 23.36C120.477 24.64 121.171 26.1733 121.624 27.96C122.077 29.72 122.304 31.68 122.304 33.84ZM104.744 33.84C104.744 35.3067 104.851 36.6667 105.064 37.92C105.277 39.1733 105.637 40.2667 106.144 41.2C106.651 42.1067 107.317 42.8267 108.144 43.36C108.971 43.8667 109.997 44.12 111.224 44.12C112.424 44.12 113.437 43.8667 114.264 43.36C115.091 42.8267 115.757 42.1067 116.264 41.2C116.771 40.2667 117.131 39.1733 117.344 37.92C117.557 36.6667 117.664 35.3067 117.664 33.84C117.664 32.4 117.557 31.0533 117.344 29.8C117.131 28.52 116.771 27.4267 116.264 26.52C115.757 25.5867 115.091 24.8533 114.264 24.32C113.437 23.7867 112.424 23.52 111.224 23.52C109.997 23.52 108.971 23.7867 108.144 24.32C107.317 24.8533 106.651 25.5867 106.144 26.52C105.637 27.4267 105.277 28.52 105.064 29.8C104.851 31.0533 104.744 32.4 104.744 33.84ZM136.494 41.04H140.054V37.92H136.494V34H140.054V19.72H150.334C151.908 19.72 153.334 19.88 154.614 20.2C155.894 20.4933 156.988 21 157.894 21.72C158.801 22.4133 159.494 23.3333 159.974 24.48C160.481 25.6267 160.734 27.04 160.734 28.72C160.734 28.8 160.734 28.8667 160.734 28.92C160.734 30.3067 160.468 31.5867 159.934 32.76C159.401 33.9333 158.668 34.9067 157.734 35.68C156.801 36.4267 155.681 36.9867 154.374 37.36C153.068 37.7333 151.654 37.92 150.134 37.92H144.694V41.04H152.734V44.72H144.694V48H140.054V44.72H136.494V41.04ZM149.934 34C150.788 34 151.574 33.9067 152.294 33.72C153.041 33.5333 153.694 33.24 154.254 32.84C154.814 32.44 155.254 31.92 155.574 31.28C155.921 30.64 156.108 29.8533 156.134 28.92C156.134 27.9333 156.001 27.12 155.734 26.48C155.468 25.8133 155.068 25.2933 154.534 24.92C154.028 24.52 153.401 24.2533 152.654 24.12C151.908 23.96 151.041 23.88 150.054 23.88H144.694V34H149.934Z" fill="#1E1F1F"/>
<path d="M221.92 35.56L223.44 19.72H240.48V23.84H227.32L226.52 31.2C227.293 30.6933 228.12 30.3067 229 30.04C229.907 29.7467 230.987 29.6 232.24 29.6C233.653 29.6 234.933 29.8133 236.08 30.24C237.227 30.64 238.213 31.2267 239.04 32C239.867 32.7733 240.493 33.72 240.92 34.84C241.373 35.96 241.6 37.2267 241.6 38.64C241.6 40.16 241.333 41.52 240.8 42.72C240.267 43.92 239.533 44.9333 238.6 45.76C237.667 46.5867 236.573 47.2267 235.32 47.68C234.067 48.1067 232.707 48.32 231.24 48.32C229.987 48.32 228.8 48.1733 227.68 47.88C226.587 47.5867 225.587 47.1333 224.68 46.52C223.8 45.9067 223.053 45.12 222.44 44.16C221.853 43.1733 221.467 42.0133 221.28 40.68H225.88C226.04 41.24 226.293 41.7333 226.64 42.16C227.013 42.5867 227.44 42.9467 227.92 43.24C228.4 43.5333 228.92 43.76 229.48 43.92C230.04 44.0533 230.6 44.12 231.16 44.12C231.96 44.12 232.707 44.0267 233.4 43.84C234.093 43.6267 234.693 43.3067 235.2 42.88C235.733 42.4533 236.147 41.92 236.44 41.28C236.733 40.6133 236.88 39.8133 236.88 38.88C236.88 37.1733 236.373 35.8667 235.36 34.96C234.373 34.0533 233.067 33.6 231.44 33.6C230.427 33.6 229.507 33.7733 228.68 34.12C227.853 34.4667 227.107 34.9467 226.44 35.56H221.92ZM260.072 33.04C260.952 31.92 262.005 31.0933 263.232 30.56C264.458 30.0267 265.765 29.76 267.152 29.76C268.538 29.76 269.805 29.9733 270.952 30.4C272.098 30.8267 273.072 31.4267 273.872 32.2C274.672 32.9733 275.285 33.9333 275.712 35.08C276.165 36.2 276.392 37.4533 276.392 38.84C276.392 40.2533 276.138 41.5333 275.632 42.68C275.152 43.8267 274.472 44.8133 273.592 45.64C272.712 46.4667 271.685 47.1067 270.512 47.56C269.338 48.0133 268.072 48.24 266.712 48.24C264.685 48.24 262.965 47.88 261.552 47.16C260.165 46.4133 259.032 45.44 258.152 44.24C257.298 43.0133 256.672 41.6 256.272 40C255.898 38.3733 255.698 36.68 255.672 34.92C255.672 33.72 255.738 32.52 255.872 31.32C256.032 30.12 256.272 28.9733 256.592 27.88C256.938 26.76 257.378 25.7067 257.912 24.72C258.472 23.7333 259.152 22.8533 259.952 22.08C260.805 21.2533 261.832 20.6 263.032 20.12C264.232 19.64 265.605 19.4 267.152 19.4C269.472 19.4 271.458 19.9733 273.112 21.12C274.765 22.2667 275.818 24.0267 276.272 26.4H271.632C271.258 25.4133 270.645 24.6933 269.792 24.24C268.938 23.76 268.005 23.52 266.992 23.52C266.138 23.52 265.352 23.6667 264.632 23.96C263.938 24.2533 263.325 24.6667 262.792 25.2C262.312 25.68 261.898 26.2267 261.552 26.84C261.205 27.4533 260.925 28.1067 260.712 28.8C260.498 29.4933 260.338 30.2 260.232 30.92C260.125 31.64 260.072 32.3467 260.072 33.04ZM271.752 39.16C271.752 37.56 271.272 36.28 270.312 35.32C269.378 34.3333 268.112 33.84 266.512 33.84C265.765 33.84 265.058 33.9733 264.392 34.24C263.752 34.48 263.178 34.8267 262.672 35.28C262.192 35.7333 261.805 36.28 261.512 36.92C261.245 37.56 261.112 38.2533 261.112 39C261.112 39.6933 261.245 40.36 261.512 41C261.778 41.6133 262.152 42.16 262.632 42.64C263.112 43.0933 263.672 43.4667 264.312 43.76C264.978 44.0267 265.698 44.16 266.472 44.16C268.018 44.16 269.285 43.7067 270.272 42.8C271.258 41.8667 271.752 40.6533 271.752 39.16ZM296.276 34.48C295.876 35.0933 295.41 35.6133 294.876 36.04C294.343 36.4667 293.756 36.8267 293.116 37.12C292.503 37.3867 291.85 37.5867 291.156 37.72C290.463 37.8533 289.77 37.92 289.076 37.92C287.743 37.92 286.516 37.72 285.396 37.32C284.303 36.8933 283.343 36.2933 282.516 35.52C281.69 34.7467 281.05 33.8 280.596 32.68C280.143 31.56 279.916 30.2933 279.916 28.88C279.916 27.44 280.17 26.1333 280.676 24.96C281.21 23.7867 281.916 22.8 282.796 22C283.703 21.1733 284.756 20.5467 285.956 20.12C287.183 19.6667 288.503 19.44 289.916 19.44C291.89 19.4133 293.596 19.8533 295.036 20.76C296.503 21.64 297.623 22.76 298.396 24.12C299.196 25.4533 299.756 26.9867 300.076 28.72C300.423 30.4267 300.623 32.1467 300.676 33.88C300.676 35.6933 300.503 37.4667 300.156 39.2C299.81 40.9333 299.21 42.48 298.356 43.84C297.53 45.1733 296.41 46.2533 294.996 47.08C293.583 47.88 291.81 48.28 289.676 48.28C288.503 48.28 287.383 48.1467 286.316 47.88C285.276 47.5867 284.33 47.16 283.476 46.6C282.623 46.0133 281.903 45.2933 281.316 44.44C280.73 43.56 280.343 42.52 280.156 41.32H284.916C285.263 42.28 285.89 43 286.796 43.48C287.703 43.9333 288.663 44.16 289.676 44.16C290.476 44.16 291.183 44.0533 291.796 43.84C292.41 43.6 292.956 43.2933 293.436 42.92C293.916 42.5467 294.33 42.1067 294.676 41.6C295.023 41.0667 295.303 40.5067 295.516 39.92C295.863 39.04 296.076 38.1467 296.156 37.24C296.236 36.3067 296.276 35.3867 296.276 34.48ZM284.556 28.6C284.556 30.2267 285.023 31.5067 285.956 32.44C286.916 33.3733 288.196 33.84 289.796 33.84C290.516 33.84 291.196 33.7333 291.836 33.52C292.503 33.28 293.076 32.96 293.556 32.56C294.036 32.1333 294.41 31.6267 294.676 31.04C294.97 30.4267 295.13 29.76 295.156 29.04C295.156 28.2933 295.036 27.5867 294.796 26.92C294.556 26.2533 294.21 25.68 293.756 25.2C293.303 24.6933 292.743 24.2933 292.076 24C291.436 23.7067 290.716 23.56 289.916 23.56C288.37 23.56 287.09 24.0133 286.076 24.92C285.09 25.8267 284.583 27.0533 284.556 28.6ZM326.562 33.84C326.562 36 326.335 37.9733 325.882 39.76C325.455 41.52 324.775 43.0267 323.842 44.28C322.935 45.5333 321.789 46.5067 320.402 47.2C319.015 47.8933 317.375 48.24 315.482 48.24C313.589 48.24 311.949 47.9067 310.562 47.24C309.175 46.5467 308.029 45.5867 307.122 44.36C306.215 43.1333 305.535 41.6533 305.082 39.92C304.629 38.1867 304.402 36.2533 304.402 34.12C304.402 31.9333 304.615 29.9333 305.042 28.12C305.469 26.3067 306.135 24.7467 307.042 23.44C307.949 22.1333 309.095 21.1333 310.482 20.44C311.895 19.72 313.562 19.36 315.482 19.36C317.349 19.36 318.975 19.7067 320.362 20.4C321.749 21.0933 322.895 22.08 323.802 23.36C324.735 24.64 325.429 26.1733 325.882 27.96C326.335 29.72 326.562 31.68 326.562 33.84ZM309.002 33.84C309.002 35.3067 309.109 36.6667 309.322 37.92C309.535 39.1733 309.895 40.2667 310.402 41.2C310.909 42.1067 311.575 42.8267 312.402 43.36C313.229 43.8667 314.255 44.12 315.482 44.12C316.682 44.12 317.695 43.8667 318.522 43.36C319.349 42.8267 320.015 42.1067 320.522 41.2C321.029 40.2667 321.389 39.1733 321.602 37.92C321.815 36.6667 321.922 35.3067 321.922 33.84C321.922 32.4 321.815 31.0533 321.602 29.8C321.389 28.52 321.029 27.4267 320.522 26.52C320.015 25.5867 319.349 24.8533 318.522 24.32C317.695 23.7867 316.682 23.52 315.482 23.52C314.255 23.52 313.229 23.7867 312.402 24.32C311.575 24.8533 310.909 25.5867 310.402 26.52C309.895 27.4267 309.535 28.52 309.322 29.8C309.109 31.0533 309.002 32.4 309.002 33.84ZM340.752 41.04H344.312V37.92H340.752V34H344.312V19.72H354.592C356.166 19.72 357.592 19.88 358.872 20.2C360.152 20.4933 361.246 21 362.152 21.72C363.059 22.4133 363.752 23.3333 364.232 24.48C364.739 25.6267 364.992 27.04 364.992 28.72C364.992 28.8 364.992 28.8667 364.992 28.92C364.992 30.3067 364.726 31.5867 364.192 32.76C363.659 33.9333 362.926 34.9067 361.992 35.68C361.059 36.4267 359.939 36.9867 358.632 37.36C357.326 37.7333 355.912 37.92 354.392 37.92H348.952V41.04H356.992V44.72H348.952V48H344.312V44.72H340.752V41.04ZM354.192 34C355.046 34 355.832 33.9067 356.552 33.72C357.299 33.5333 357.952 33.24 358.512 32.84C359.072 32.44 359.512 31.92 359.832 31.28C360.179 30.64 360.366 29.8533 360.392 28.92C360.392 27.9333 360.259 27.12 359.992 26.48C359.726 25.8133 359.326 25.2933 358.792 24.92C358.286 24.52 357.659 24.2533 356.912 24.12C356.166 23.96 355.299 23.88 354.312 23.88H348.952V34H354.192Z" fill="white"/>
<path d="M219 38H366.752V40H219V38Z" fill="white"/>
</svg>
